<svg id="visual" viewBox="0 0 675 900" width="675" height="900" xmlns="http://www.w3.org/2000/svg" xmlns:xlink="http://www.w3.org/1999/xlink" version="1.1"><path d="M0 262L18.8 253C37.7 244 75.3 226 112.8 224.5C150.3 223 187.7 238 225.2 256C262.7 274 300.3 295 337.8 296.5C375.3 298 412.7 280 450.2 262C487.7 244 525.3 226 562.8 226C600.3 226 637.7 244 656.3 253L675 262L675 0L656.3 0C637.7 0 600.3 0 562.8 0C525.3 0 487.7 0 450.2 0C412.7 0 375.3 0 337.8 0C300.3 0 262.7 0 225.2 0C187.7 0 150.3 0 112.8 0C75.3 0 37.7 0 18.8 0L0 0Z" fill="#6198ff"></path><path d="M0 433L18.8 421C37.7 409 75.3 385 112.8 380.5C150.3 376 187.7 391 225.2 407.5C262.7 424 300.3 442 337.8 439C375.3 436 412.7 412 450.2 398.5C487.7 385 525.3 382 562.8 392.5C600.3 403 637.7 427 656.3 439L675 451L675 260L656.3 251C637.7 242 600.3 224 562.8 224C525.3 224 487.7 242 450.2 260C412.7 278 375.3 296 337.8 294.5C300.3 293 262.7 272 225.2 254C187.7 236 150.3 221 112.8 222.5C75.3 224 37.7 242 18.8 251L0 260Z" fill="#3c80ff"></path><path d="M0 694L18.8 685C37.7 676 75.3 658 112.8 653.5C150.3 649 187.7 658 225.2 661C262.7 664 300.3 661 337.8 661C375.3 661 412.7 664 450.2 665.5C487.7 667 525.3 667 562.8 667C600.3 667 637.7 667 656.3 667L675 667L675 449L656.3 437C637.7 425 600.3 401 562.8 390.5C525.3 380 487.7 383 450.2 396.5C412.7 410 375.3 434 337.8 437C300.3 440 262.7 422 225.2 405.5C187.7 389 150.3 374 112.8 378.5C75.3 383 37.7 407 18.8 419L0 431Z" fill="#0066ff"></path><path d="M0 802L18.8 796C37.7 790 75.3 778 112.8 776.5C150.3 775 187.7 784 225.2 781C262.7 778 300.3 763 337.8 758.5C375.3 754 412.7 760 450.2 764.5C487.7 769 525.3 772 562.8 776.5C600.3 781 637.7 787 656.3 790L675 793L675 665L656.3 665C637.7 665 600.3 665 562.8 665C525.3 665 487.7 665 450.2 663.5C412.7 662 375.3 659 337.8 659C300.3 659 262.7 662 225.2 659C187.7 656 150.3 647 112.8 651.5C75.3 656 37.7 674 18.8 683L0 692Z" fill="#0059dd"></path><path d="M0 901L18.8 901C37.7 901 75.3 901 112.8 901C150.3 901 187.7 901 225.2 901C262.7 901 300.3 901 337.8 901C375.3 901 412.7 901 450.2 901C487.7 901 525.3 901 562.8 901C600.3 901 637.7 901 656.3 901L675 901L675 791L656.3 788C637.7 785 600.3 779 562.8 774.5C525.3 770 487.7 767 450.2 762.5C412.7 758 375.3 752 337.8 756.5C300.3 761 262.7 776 225.2 779C187.7 782 150.3 773 112.8 774.5C75.3 776 37.7 788 18.8 794L0 800Z" fill="#004cbb"></path></svg>